# Created by Kenney (www.kenney.nl)

mtllib chest.mtl

g chest

v 0.0837 0 0.10695
v -0.0837 0 0.10695
v 0.0895125 0.132804 0.10695
v -0.0895125 0.132804 0.10695
v -0.10695 0.132804 -0.0895125
v -0.10695 0.132804 0.0895125
v -0.10695 0 -0.0837
v -0.10695 0 0.0837
v -0.0837 0 -0.10695
v 0.0837 0 -0.10695
v -0.0895125 0.132804 -0.10695
v -0.0288 0.087804 -0.10695
v -0.0288 0.132804 -0.10695
v 0.0288 0.087804 -0.10695
v 0.0895125 0.132804 -0.10695
v 0.0288 0.132804 -0.10695
v 0.1302 0 0.1302
v 0.1302 0 0.0837
v 0.0837 0 0.1302
v 0.10695 0 0.0837
v 0.10695 0 -0.0837
v 0.0837 0 -0.1302
v 0.1302 0 -0.1302
v 0.1302 0 -0.0837
v -0.0837 0 -0.1302
v -0.1302 0 0.1302
v -0.0837 0 0.1302
v -0.1302 0 0.0837
v -0.1302 0 -0.1302
v -0.1302 0 -0.0837
v 0.10695 0.132804 -0.0895125
v 0.10695 0.132804 0.0895125
v 0.1243875 0.132804 -0.1243875
v 0.1243875 0.132804 -0.0895125
v 0.0895125 0.132804 -0.1243875
v 0.0895125 0.132804 0.1243875
v 0.1243875 0.132804 0.1243875
v 0.1243875 0.132804 0.0895125
v 0.07344894 0.132804 -0.07344894
v 0.07344894 0.132804 0.07344894
v -0.07344894 0.132804 -0.07344894
v -0.07344894 0.132804 0.07344894
v -0.0895125 0.132804 0.1243875
v -0.1243875 0.132804 -0.1243875
v -0.0895125 0.132804 -0.1243875
v -0.1243875 0.132804 -0.0895125
v -0.1243875 0.132804 0.1243875
v -0.1243875 0.132804 0.0895125
v 0.07344894 0.012804 -0.07344894
v 0.07344894 0.012804 0.07344894
v -0.07344894 0.012804 -0.07344894
v -0.07344894 0.012804 0.07344894
v -0.0288 0.087804 -0.1243875
v 0.0288 0.087804 -0.1243875
v -0.0288 0.132804 -0.1243875
v 0.0288 0.132804 -0.1243875

vn 0 0 1
vn -1 0 0
vn 0 0 -1
vn 0 -1 0
vn 1 0 0
vn 0 1 0
vn 0 0.04372565 0.9990435
vn 0 0.04372565 -0.9990435
vn -0.9990435 0.04372565 0
vn 0.9990435 0.04372565 0

vt 3.295276 0
vt -3.295276 0
vt 3.524114 5.228504
vt -3.524114 5.228504
vt 1.133858 3.45685
vt 1.133858 5.228504
vt -1.133858 3.45685
vt -1.133858 5.228504
vt 5.125984 5.125984
vt 5.125984 3.295276
vt 3.295276 5.125984
vt 4.21063 3.295276
vt 4.21063 -3.295276
vt 3.295276 -5.125984
vt 3.295276 4.21063
vt 5.125984 -5.125984
vt 5.125984 -3.295276
vt 3.295276 -4.21063
vt -3.295276 4.21063
vt -3.295276 -4.21063
vt -4.21063 3.295276
vt -3.295276 -5.125984
vt -5.125984 5.125984
vt -3.295276 5.125984
vt -5.125984 3.295276
vt -4.21063 -3.295276
vt -5.125984 -5.125984
vt -5.125984 -3.295276
vt -4.897146 -4.897146
vt -4.897146 -3.524114
vt -3.524114 -4.897146
vt -4.21063 -3.524114
vt -4.21063 3.524114
vt -3.524114 4.897146
vt -3.524114 -4.21063
vt -4.897146 4.897146
vt -4.897146 3.524114
vt -3.524114 4.21063
vt -2.89169 -2.89169
vt -1.133858 -4.21063
vt -2.89169 2.89169
vt 2.89169 -2.89169
vt 1.133858 -4.21063
vt 3.524114 4.21063
vt 3.524114 -4.21063
vt 2.89169 2.89169
vt 4.21063 -3.524114
vt 3.524114 4.897146
vt 4.897146 -4.897146
vt 3.524114 -4.897146
vt 4.897146 -3.524114
vt 4.21063 3.524114
vt 4.897146 4.897146
vt 4.897146 3.524114
vt -3.295276 -0.224137
vt -5.125984 -0.224137
vt -3.524114 5.009372
vt -4.897146 5.009372
vt 5.125984 0.1440881
vt 4.21063 0.1440881
vt 4.897146 5.377597
vt 4.21063 5.377597
vt 3.295276 -0.224137
vt 3.524114 5.009372
vt 5.125984 -0.224137
vt 4.897146 5.009372
vt -5.125984 0.1440881
vt -4.897146 5.377597
vt -4.21063 0.1440881
vt -4.21063 5.377597
vt 2.89169 0.5040945
vt -2.89169 0.5040945
vt 2.89169 5.228504
vt -2.89169 5.228504
vt 1.133858 -4.897146
vt -1.133858 -4.897146
vt -4.897146 3.45685
vt -4.897146 5.228504
vt -4.21063 3.45685
vt -4.21063 5.228504
vt 4.897146 5.228504
vt 4.897146 3.45685
vt 4.21063 5.228504
vt 4.21063 3.45685

usemtl woodDark

f 3/3/1 2/2/1 1/1/1
f 2/2/1 3/3/1 4/4/1
f 7/2/2 6/3/2 5/4/2
f 6/3/2 7/2/2 8/1/2
f 11/3/3 10/2/3 9/1/3
f 10/2/3 11/3/3 12/5/3
f 12/5/3 11/3/3 13/6/3
f 14/7/3 10/2/3 12/5/3
f 10/2/3 14/7/3 15/4/3
f 15/4/3 14/7/3 16/8/3
f 19/11/4 18/10/4 17/9/4
f 18/10/4 19/11/4 20/12/4
f 20/12/4 19/11/4 21/13/4
f 22/14/4 21/13/4 19/11/4
f 22/14/4 19/11/4 1/15/4
f 23/16/4 21/13/4 22/14/4
f 21/13/4 23/16/4 24/17/4
f 22/14/4 1/15/4 10/18/4
f 2/19/4 10/18/4 1/15/4
f 10/18/4 2/19/4 9/20/4
f 2/19/4 8/21/4 9/20/4
f 9/20/4 8/21/4 25/22/4
f 2/19/4 26/23/4 8/21/4
f 26/23/4 2/19/4 27/24/4
f 8/21/4 26/23/4 28/25/4
f 7/26/4 25/22/4 8/21/4
f 25/22/4 7/26/4 29/27/4
f 29/27/4 7/26/4 30/28/4
f 32/4/5 21/1/5 31/3/5
f 21/1/5 32/4/5 20/2/5
f 35/31/6 34/30/6 33/29/6
f 34/30/6 35/31/6 31/32/6
f 31/32/6 35/31/6 32/33/6
f 36/34/6 32/33/6 35/31/6
f 36/34/6 35/31/6 15/35/6
f 37/36/6 32/33/6 36/34/6
f 32/33/6 37/36/6 38/37/6
f 36/34/6 15/35/6 3/38/6
f 15/35/6 39/39/6 3/38/6
f 39/39/6 15/35/6 16/40/6
f 40/41/6 3/38/6 39/39/6
f 39/39/6 16/40/6 41/42/6
f 41/42/6 16/40/6 13/43/6
f 3/38/6 40/41/6 4/44/6
f 41/42/6 13/43/6 11/45/6
f 4/44/6 40/41/6 42/46/6
f 41/42/6 11/45/6 42/46/6
f 4/44/6 42/46/6 11/45/6
f 11/45/6 5/47/6 4/44/6
f 4/44/6 5/47/6 43/48/6
f 11/45/6 44/49/6 5/47/6
f 44/49/6 11/45/6 45/50/6
f 5/47/6 44/49/6 46/51/6
f 6/52/6 43/48/6 5/47/6
f 43/48/6 6/52/6 47/53/6
f 47/53/6 6/52/6 48/54/6

usemtl wood

f 43/57/7 26/56/7 27/55/7
f 26/56/7 43/57/7 47/58/7
f 48/61/8 8/60/8 28/59/8
f 8/60/8 48/61/8 6/62/8
f 30/55/9 44/58/9 29/56/9
f 44/58/9 30/55/9 46/57/9
f 26/65/9 48/64/9 28/63/9
f 48/64/9 26/65/9 47/66/9
f 19/59/9 3/62/9 1/60/9
f 3/62/9 19/59/9 36/61/9
f 34/61/7 21/60/7 24/59/7
f 21/60/7 34/61/7 31/62/7
f 10/69/9 35/68/9 22/67/9
f 35/68/9 10/69/9 15/70/9
f 44/66/8 25/63/8 29/65/8
f 25/63/8 44/66/8 45/64/8
f 33/66/10 24/63/10 23/65/10
f 24/63/10 33/66/10 34/64/10
f 37/66/7 19/63/7 17/65/7
f 19/63/7 37/66/7 36/64/7
f 43/68/10 2/69/10 4/70/10
f 2/69/10 43/68/10 27/67/10
f 38/57/10 17/56/10 18/55/10
f 17/56/10 38/57/10 37/58/10
f 5/70/7 30/67/7 7/69/7
f 30/67/7 5/70/7 46/68/7
f 32/70/8 18/67/8 20/69/8
f 18/67/8 32/70/8 38/68/8
f 35/57/8 23/56/8 22/55/8
f 23/56/8 35/57/8 33/58/8
f 45/61/10 9/60/10 25/59/10
f 9/60/10 45/61/10 11/62/10
f 51/42/6 50/41/6 49/39/6
f 50/41/6 51/42/6 52/46/6
f 39/73/1 51/72/1 49/71/1
f 51/72/1 39/73/1 41/74/1
f 42/74/5 51/71/5 41/73/5
f 51/71/5 42/74/5 52/72/5
f 42/73/3 50/72/3 52/71/3
f 50/72/3 42/73/3 40/74/3
f 50/71/2 39/74/2 49/72/2
f 39/74/2 50/71/2 40/73/2

usemtl metal

f 55/6/3 54/7/3 53/5/3
f 54/7/3 55/6/3 56/8/3
f 12/40/4 54/75/4 14/43/4
f 54/75/4 12/40/4 53/76/4
f 55/75/6 16/40/6 56/76/6
f 16/40/6 55/75/6 13/43/6
f 12/79/2 55/78/2 53/77/2
f 55/78/2 12/79/2 13/80/2
f 16/83/5 54/82/5 56/81/5
f 54/82/5 16/83/5 14/84/5

g lid

v 0.1243875 0.262804 0
v 0.1243875 0.2583213 0.03310867
v -0.1243875 0.262804 0
v -0.1243875 0.2583213 0.03310867
v 0.1243875 0.2583213 -0.03310865
v -0.1243875 0.2583213 -0.03310865
v 0.1243875 0.2451958 -0.06383327
v -0.1243875 0.2451958 -0.06383327
v 0.1243875 0.132804 0.0895125
v 0.10695 0.132804 0.0895125
v -0.10695 0.132804 0.0895125
v -0.1243875 0.132804 0.0895125
v 0.1243875 0.2243729 -0.08996145
v -0.1243875 0.2243729 -0.08996145
v 0.1243875 0.1973517 0.1096118
v -0.1243875 0.1973517 0.1096118
v 0.1243875 0.2243729 0.08996145
v -0.1243875 0.2243729 0.08996145
v -0.1243875 0.1660781 -0.1213693
v 0.1243875 0.1660781 -0.1213693
v -0.1243875 0.1973517 -0.1096118
v 0.1243875 0.1973517 -0.1096118
v 0.1243875 0.2451958 0.06383327
v -0.1243875 0.2451958 0.06383327
v 0.1243875 0.1582572 -0.08720374
v 0.1243875 0.1675364 -0.08371517
v 0.1243875 0.1807273 -0.07875596
v 0.1243875 0.200142 -0.0646372
v 0.1243875 0.2151032 -0.04586414
v 0.1243875 0.2245338 -0.02378853
v 0.1243875 0.2277547 0
v 0.1243875 0.2245338 0.02378854
v 0.1243875 0.2151032 0.04586414
v 0.1243875 0.200142 0.06463721
v 0.1243875 0.1807273 0.07875596
v 0.1243875 0.1582572 0.08720376
v 0.1243875 0.1660781 0.1213694
v -0.1243875 0.1582572 -0.08720374
v -0.1243875 0.1807273 -0.07875596
v -0.1243875 0.200142 -0.0646372
v -0.1243875 0.2151032 -0.04586414
v -0.1243875 0.2245338 -0.02378853
v -0.1243875 0.2277547 0
v -0.1243875 0.2245338 0.02378854
v -0.1243875 0.2151032 0.04586414
v -0.1243875 0.200142 0.06463721
v -0.1243875 0.1807273 0.07875596
v -0.1243875 0.1675364 0.08371519
v -0.1243875 0.1582572 0.08720376
v -0.1243875 0.1660781 0.1213694
v -0.10695 0.1582572 -0.08720374
v -0.10695 0.1807273 -0.07875596
v -0.10695 0.200142 -0.0646372
v -0.10695 0.2151032 -0.04586414
v -0.10695 0.2245338 -0.02378853
v -0.10695 0.2277547 0
v -0.10695 0.2245338 0.02378854
v -0.10695 0.2151032 0.04586414
v -0.10695 0.200142 0.06463721
v -0.10695 0.1807273 0.07875596
v -0.10695 0.1675364 0.08371519
v -0.10695 0.1582572 0.08720376
v 0.10695 0.1807273 0.07875596
v 0.10695 0.200142 0.06463721
v 0.10695 0.2151032 0.04586414
v 0.10695 0.2245338 -0.02378853
v 0.10695 0.2151032 -0.04586414
v 0.10695 0.2277547 0
v 0.10695 0.1807273 -0.07875596
v 0.10695 0.200142 -0.0646372
v 0.10695 0.2245338 0.02378854
v 0.10695 0.1582572 0.08720376
v 0.10695 0.1582572 -0.08720374
v 0.10695 0.1675364 -0.08371517

vn 0 0.9639966 0.2659145
vn 0 0.9639966 -0.2659145
vn 0 0.8585789 -0.5126814
vn 0 0.6913378 -0.7225317
vn 0 0.4743156 0.8803548
vn 0 0.6913378 0.7225317
vn 0 0.3519095 -0.936034
vn 0 0.4743156 -0.8803548
vn 0 0.8585789 0.5126814
vn 0 0.3519095 0.936034
vn 0 -0.4743156 -0.8803548
vn 0 -0.6913378 -0.7225317
vn 0 -0.09033448 -0.9959115
vn 0 -0.2231395 -0.9747865
vn 0 -0.8585789 -0.5126814
vn 0 -0.9639966 0.2659145
vn 0 -0.8585789 0.5126814
vn 0 -0.09033448 0.9959115
vn 0 -0.2231395 0.9747865
vn 0 -0.3519095 -0.936034
vn 0 -0.4743156 0.8803548
vn 0 -0.6913378 0.7225317
vn 0 -0.9639966 -0.2659145
vn 0 0.09033448 0.9959115
vn 0 -0.3519095 0.936034
vn 0 0.09033448 -0.9959115

vt 4.897146 5.539566
vt 4.897146 4.224182
vt -4.897146 5.539566
vt -4.897146 4.224182
vt -4.897146 -5.481552
vt -4.897146 -4.166168
vt 4.897146 -5.481552
vt 4.897146 -4.166168
vt -4.897146 -5.076188
vt -4.897146 -3.760804
vt 4.897146 -5.076188
vt 4.897146 -3.760804
vt 4.897146 0
vt 4.897146 -1.373031
vt -4.897146 0
vt 4.21063 -1.373031
vt 4.21063 -8.42126
vt -4.21063 -1.373031
vt -4.897146 -1.373031
vt -4.21063 -8.42126
vt -4.897146 -9.794291
vt -4.897146 -8.42126
vt 4.897146 -9.794291
vt 4.897146 -8.42126
vt -4.897146 -4.352662
vt -4.897146 -3.037278
vt 4.897146 -4.352662
vt 4.897146 -3.037278
vt 4.897146 2.397386
vt -4.897146 2.397386
vt 4.897146 3.71277
vt -4.897146 3.71277
vt 4.897146 -2.178678
vt -4.897146 -2.178678
vt 4.897146 -0.8632943
vt -4.897146 -0.8632943
vt 4.897146 4.622145
vt 4.897146 3.306761
vt -4.897146 4.622145
vt -4.897146 3.306761
vt 9.794291 0
vt 8.42126 0
vt 9.675467 1.310006
vt 9.212571 2.54125
vt 8.438935 3.605074
vt 8.330364 1.002097
vt 7.410266 4.424876
vt 8.193019 1.367418
vt 7.997774 1.886744
vt 7.441917 2.651101
vt 6.70282 3.240128
vt 6.200636 4.941625
vt 5.833702 3.611411
vt 4.897146 5.11811
vt 4.897146 3.738216
vt 3.593655 4.941625
vt 3.960589 3.611411
vt 3.091471 3.240128
vt 2.384025 4.424876
vt 2.352374 2.651101
vt 1.355356 3.605074
vt 1.796517 1.886744
vt 1.463927 1.002097
vt 1.373031 0
vt 0 0
vt 0.5817205 2.54125
vt 0.1188245 1.310006
vt -9.794291 1.45053E-30
vt -9.675467 1.310006
vt -8.42126 1.45053E-30
vt -9.212571 2.54125
vt -8.438935 3.605074
vt -8.330364 1.002097
vt -7.410266 4.424876
vt -7.997774 1.886744
vt -7.441917 2.651101
vt -6.70282 3.240128
vt -6.200636 4.941625
vt -5.833702 3.611411
vt -4.897146 5.11811
vt -4.897146 3.738216
vt -3.960589 3.611411
vt -3.593655 4.941625
vt -3.091471 3.240128
vt -2.384025 4.424876
vt -2.352374 2.651101
vt -1.355356 3.605074
vt -1.796517 1.886744
vt -1.601272 1.367418
vt -1.463927 1.002097
vt -1.373031 1.45053E-30
vt -4.349195E-31 1.45053E-30
vt -0.5817205 2.54125
vt -0.1188245 1.310006
vt 4.897146 1.268026
vt -4.897146 1.268026
vt 4.897146 2.583409
vt -4.897146 2.583409
vt 4.897146 5.246052
vt 4.897146 3.930668
vt -4.897146 5.246052
vt -4.897146 3.930668
vt 4.897146 -3.363073
vt -4.897146 -3.363073
vt 4.897146 -2.047689
vt -4.897146 -2.047689
vt -8.42126 0
vt -1.373031 0
vt -4.21063 2.582527
vt -4.897146 2.582527
vt -4.21063 3.527629
vt -4.897146 3.527629
vt 4.897146 0.1240321
vt 4.21063 0.1240321
vt 4.897146 1.130243
vt 4.21063 1.130243
vt 4.897146 2.582527
vt 4.21063 2.582527
vt 4.897146 3.527629
vt 4.21063 3.527629
vt -4.897146 3.491902
vt -4.897146 4.437004
vt -4.21063 3.491902
vt -4.21063 4.437004
vt 4.897146 -3.945945
vt 4.897146 -4.891047
vt 4.21063 -3.945945
vt 4.21063 -4.891047
vt -4.21063 -0.7607301
vt -4.897146 -0.7607301
vt -4.21063 0.2454806
vt -4.897146 0.2454806
vt 4.897146 1.453166
vt 4.21063 1.453166
vt 4.897146 1.843453
vt 4.21063 1.843453
vt 4.897146 2.398268
vt 4.21063 2.398268
vt 4.897146 -4.351309
vt 4.897146 -5.296411
vt 4.21063 -4.351309
vt 4.21063 -5.296411
vt 4.897146 -3.177932
vt 4.21063 -3.177932
vt 4.897146 -2.23283
vt 4.21063 -2.23283
vt -4.21063 -3.945945
vt -4.21063 -4.891047
vt -4.897146 -3.945945
vt -4.897146 -4.891047
vt 4.21063 3.491902
vt 4.21063 4.437004
vt 4.897146 3.491902
vt 4.897146 4.437004
vt -4.897146 4.115809
vt -4.897146 5.060911
vt -4.21063 4.115809
vt -4.21063 5.060911
vt -4.21063 0.1240321
vt -4.897146 0.1240321
vt -4.21063 1.130243
vt -4.897146 1.130243
vt 4.897146 1.315384
vt -4.897146 1.315384
vt -4.897146 4.409323
vt -4.897146 5.354425
vt -4.21063 4.409323
vt -4.21063 5.354425
vt 4.21063 4.115809
vt 4.21063 5.060911
vt 4.897146 4.115809
vt 4.897146 5.060911
vt 4.897146 -1.993537
vt 4.21063 -1.993537
vt 4.897146 -1.603251
vt 4.21063 -1.603251
vt 4.897146 -1.048435
vt 4.21063 -1.048435
vt -4.21063 -1.993537
vt -4.897146 -1.993537
vt -4.21063 -1.048435
vt -4.897146 -1.048435
vt 4.897146 -0.7607301
vt 4.21063 -0.7607301
vt 4.897146 0.2454806
vt 4.21063 0.2454806
vt 4.21063 4.409323
vt 4.21063 5.354425
vt 4.897146 4.409323
vt 4.897146 5.354425
vt 4.897146 -3.222419
vt 4.897146 -4.167521
vt 4.21063 -3.222419
vt 4.21063 -4.167521
vt 4.897146 -0.8847622
vt -4.897146 -0.8847622
vt 4.897146 0.4306216
vt -4.897146 0.4306216
vt -4.21063 -3.177932
vt -4.897146 -3.177932
vt -4.21063 -2.23283
vt -4.897146 -2.23283
vt -4.21063 -3.222419
vt -4.21063 -4.167521
vt -4.897146 -3.222419
vt -4.897146 -4.167521
vt -4.21063 -4.351309
vt -4.21063 -5.296411
vt -4.897146 -4.351309
vt -4.897146 -5.296411
vt -4.21063 1.453166
vt -4.897146 1.453166
vt -4.21063 2.398268
vt -4.897146 2.398268

usemtl wood

f 59/87/6 58/86/11 57/85/6
f 58/86/11 59/87/6 60/88/11
f 62/91/12 57/90/6 61/89/12
f 57/90/6 62/91/12 59/92/6
f 64/95/13 61/94/12 63/93/13
f 61/94/12 64/95/13 62/96/12
f 47/99/4 65/98/4 37/97/4
f 65/98/4 47/99/4 66/100/4
f 66/100/4 47/99/4 31/101/4
f 31/101/4 47/99/4 67/102/4
f 67/102/4 47/99/4 68/103/4
f 5/104/4 31/101/4 67/102/4
f 44/105/4 31/101/4 5/104/4
f 44/105/4 5/104/4 46/106/4
f 33/107/4 31/101/4 44/105/4
f 31/101/4 33/107/4 34/108/4
f 70/111/14 63/110/13 69/109/14
f 63/110/13 70/111/14 64/112/13
f 73/115/16 72/114/15 71/113/15
f 72/114/15 73/115/16 74/116/16
f 77/119/18 76/118/17 75/117/17
f 76/118/17 77/119/18 78/120/18
f 80/123/19 73/122/16 79/121/19
f 73/122/16 80/123/19 74/124/16
f 76/127/5 34/126/5 33/125/5
f 34/126/5 76/127/5 78/128/5
f 34/126/5 78/128/5 69/129/5
f 34/126/5 69/129/5 81/130/5
f 81/130/5 69/129/5 63/131/5
f 81/130/5 63/131/5 82/132/5
f 82/132/5 63/131/5 83/133/5
f 83/133/5 63/131/5 84/134/5
f 84/134/5 63/131/5 85/135/5
f 85/135/5 63/131/5 61/136/5
f 85/135/5 61/136/5 86/137/5
f 86/137/5 61/136/5 57/138/5
f 86/137/5 57/138/5 87/139/5
f 87/139/5 57/138/5 58/140/5
f 87/139/5 58/140/5 88/141/5
f 88/141/5 58/140/5 89/142/5
f 89/142/5 58/140/5 79/143/5
f 89/142/5 79/143/5 90/144/5
f 90/144/5 79/143/5 73/145/5
f 90/144/5 73/145/5 91/146/5
f 91/146/5 73/145/5 92/147/5
f 92/147/5 73/145/5 65/148/5
f 65/148/5 73/145/5 37/149/5
f 37/149/5 73/145/5 71/150/5
f 37/149/5 71/150/5 93/151/5
f 46/154/2 75/153/2 44/152/2
f 75/153/2 46/154/2 77/155/2
f 77/155/2 46/154/2 70/156/2
f 70/156/2 46/154/2 94/157/2
f 70/156/2 94/157/2 64/158/2
f 64/158/2 94/157/2 95/159/2
f 64/158/2 95/159/2 96/160/2
f 64/158/2 96/160/2 97/161/2
f 64/158/2 97/161/2 62/162/2
f 62/162/2 97/161/2 98/163/2
f 62/162/2 98/163/2 59/164/2
f 59/164/2 98/163/2 99/165/2
f 59/164/2 99/165/2 100/166/2
f 59/164/2 100/166/2 60/167/2
f 60/167/2 100/166/2 101/168/2
f 60/167/2 101/168/2 80/169/2
f 80/169/2 101/168/2 102/170/2
f 80/169/2 102/170/2 74/171/2
f 74/171/2 102/170/2 103/172/2
f 74/171/2 103/172/2 104/173/2
f 74/171/2 104/173/2 105/174/2
f 74/171/2 105/174/2 68/175/2
f 74/171/2 68/175/2 47/176/2
f 74/171/2 47/176/2 72/177/2
f 72/177/2 47/176/2 106/178/2
f 71/181/15 106/180/20 93/179/20
f 106/180/20 71/181/15 72/182/15
f 60/185/11 79/184/19 58/183/11
f 79/184/19 60/185/11 80/186/19
f 70/189/14 78/188/18 77/187/18
f 78/188/18 70/189/14 69/190/14

usemtl woodDark

f 67/192/2 107/157/2 5/191/2
f 107/157/2 67/192/2 108/159/2
f 108/159/2 67/192/2 109/160/2
f 109/160/2 67/192/2 110/161/2
f 110/161/2 67/192/2 111/163/2
f 111/163/2 67/192/2 112/165/2
f 112/165/2 67/192/2 113/166/2
f 113/166/2 67/192/2 114/168/2
f 114/168/2 67/192/2 115/170/2
f 115/170/2 67/192/2 116/172/2
f 116/172/2 67/192/2 117/173/2
f 117/173/2 67/192/2 118/174/2
f 120/195/22 91/194/21 119/193/21
f 91/194/21 120/195/22 90/196/22
f 105/199/24 67/198/23 68/197/23
f 67/198/23 105/199/24 118/200/24
f 102/203/22 116/202/21 103/201/21
f 116/202/21 102/203/22 115/204/22
f 120/207/22 89/206/25 90/205/22
f 89/206/25 120/207/22 121/208/25
f 122/211/26 85/210/27 86/209/26
f 85/210/27 122/211/26 123/212/27
f 107/215/29 46/214/28 5/213/28
f 46/214/28 107/215/29 94/216/29
f 104/219/30 118/218/24 105/217/24
f 118/218/24 104/219/30 117/220/30
f 117/220/30 104/219/30 103/221/21
f 117/220/30 103/221/21 116/222/21
f 124/225/4 86/224/26 87/223/4
f 86/224/26 124/225/4 122/226/26
f 84/229/32 125/228/31 83/227/31
f 125/228/31 84/229/32 126/230/32
f 98/233/26 110/232/27 111/231/26
f 110/232/27 98/233/26 97/234/27
f 102/237/22 114/236/25 115/235/22
f 114/236/25 102/237/22 101/238/25
f 121/241/25 88/240/33 89/239/25
f 88/240/33 121/241/25 127/242/33
f 128/245/24 65/244/23 66/243/23
f 65/244/23 128/245/24 92/246/24
f 93/247/34 47/99/34 37/97/34
f 47/99/34 93/247/34 106/248/34
f 127/251/33 87/250/4 88/249/33
f 87/250/4 127/251/33 124/252/4
f 101/255/25 113/254/33 114/253/25
f 113/254/33 101/255/25 100/256/33
f 129/130/5 66/148/5 31/126/5
f 66/148/5 129/130/5 130/132/5
f 66/148/5 130/132/5 125/133/5
f 66/148/5 125/133/5 126/134/5
f 66/148/5 126/134/5 123/135/5
f 66/148/5 123/135/5 122/137/5
f 66/148/5 122/137/5 124/139/5
f 66/148/5 124/139/5 127/141/5
f 66/148/5 127/141/5 121/142/5
f 66/148/5 121/142/5 120/144/5
f 66/148/5 120/144/5 119/146/5
f 66/148/5 119/146/5 128/147/5
f 82/259/35 129/258/29 81/257/29
f 129/258/29 82/259/35 130/260/35
f 130/260/35 82/259/35 83/261/31
f 130/260/35 83/261/31 125/262/31
f 108/265/31 94/264/29 107/263/29
f 94/264/29 108/265/31 95/266/31
f 81/269/29 31/268/28 34/267/28
f 31/268/28 81/269/29 129/270/29
f 100/273/33 112/272/4 113/271/33
f 112/272/4 100/273/33 99/274/4
f 123/277/27 84/276/32 85/275/27
f 84/276/32 123/277/27 126/278/32
f 75/281/36 33/280/36 44/279/36
f 33/280/36 75/281/36 76/282/36
f 109/285/32 95/284/31 108/283/31
f 95/284/31 109/285/32 96/286/32
f 97/289/27 109/288/32 110/287/27
f 109/288/32 97/289/27 96/290/32
f 99/293/4 111/292/26 112/291/4
f 111/292/26 99/293/4 98/294/26
f 119/297/21 92/296/24 128/295/24
f 92/296/24 119/297/21 91/298/21

